<?xml version="1.0" encoding="UTF-8"?>
<svg enable-background="new 0 0 170.8 44.1" version="1.1" viewBox="0 0 170.8 44.1" xml:space="preserve" xmlns="http://www.w3.org/2000/svg">
<style type="text/css">
	.st0{fill: rgb(217, 119, 6);}
</style>
<path class="st0" d="m11 10.7c0-0.4 0-0.9-0.2-1.3-0.1-0.2-0.1-0.5-0.1-0.7 0-0.3 0.2-0.6 0.5-0.7 0.3-0.2 0.7-0.3 1.1-0.3 0.9 0 1.8 0.2 2.4 0.8 0.6 0.5 0.9 1.2 0.9 1.9v19.8c0.8-0.1 1.6-0.3 2.3-0.6 0.9-0.3 1.8-0.8 2.7-1.3 1-0.6 1.9-1.3 2.7-2.1 0.9-0.9 1.7-1.8 2.4-2.9 1.6-2.5 2.3-5.4 2.3-8.4 0-1.2-0.2-2.4-0.5-3.5-0.4-1.2-1-2.3-1.8-3.3-0.7-1.1-1.7-2-2.9-2.6-1.4-0.7-3-1-4.5-1-2.2 0-4.3 0.4-6.3 1.1-1.6 0.7-3.1 1.7-4.2 3s-1.9 2.8-2.4 4.4c-0.5 1.7-0.8 3.5-0.8 5.3 0 1.1 0.1 2.3 0.3 3.4 0.2 0.8 0.4 1.5 0.8 2.3 0.2 0.5 0.5 0.9 0.8 1.3l0.4 0.5c0.3-0.1 0.6-0.1 0.7 0.1 0.2 0.2 0.2 0.5 0.2 0.7 0 0.4-0.1 0.8-0.3 1.2-0.2 0.6-0.4 1.1-0.8 1.6-0.3 0.4-0.7 0.8-1.1 1.1-0.4 0.2-0.9 0.2-1.3-0.1-0.2-0.2-0.6-0.6-1.1-1.2-0.6-0.7-1.1-1.5-1.4-2.3-0.6-1.1-1-2.3-1.3-3.4-0.3-1.6-0.5-3.2-0.5-4.8 0-2.6 0.4-5.2 1.3-7.7 0.8-2.2 2.1-4.2 3.7-5.9s3.6-3 5.8-3.8c2.4-0.9 4.9-1.3 7.5-1.3 2.1 0 4.1 0.3 6 1.1 1.7 0.7 3.3 1.7 4.6 3.1 1.3 1.3 2.3 2.9 2.9 4.7 0.7 1.9 1 3.9 1 5.9 0 2.5-0.5 5-1.4 7.3-0.9 2.2-2.2 4.2-3.8 6-3.1 3.4-7.3 5.8-11.9 6.7v8c0 0.4-0.2 0.8-0.5 1.1-0.4 0.2-0.8 0.3-1.2 0.3s-0.7-0.1-1.1-0.2c-0.3-0.1-0.7-0.2-1-0.4-0.3-0.1-0.5-0.3-0.7-0.6-0.2-0.2-0.3-0.4-0.3-0.7l0.1-31.6zm37.9 33.4c-0.7 0-1.5-0.1-2.2-0.3s-1.4-0.6-2-1.1c-0.6-0.6-1.1-1.3-1.5-2.1-0.4-1.1-0.6-2.2-0.6-3.3 0-2.1 0.3-4.2 0.8-6.2 0.6-2.4 1.4-4.8 2.3-7.2h-5.3c0 0.6-0.1 1.3-0.1 2.2s-0.1 1.9-0.3 2.9-0.2 2-0.4 3-0.4 2-0.7 2.9c-0.2 0.6-0.5 1-0.9 1.1s-0.9 0-1.3-0.2c-0.4-0.3-0.8-0.6-1-1.1-0.3-0.4-0.3-1-0.2-1.5 0.2-0.7 0.3-1.5 0.4-2.2 0.1-0.9 0.2-1.8 0.3-2.8s0.1-2 0.2-2.9 0.1-1.8 0.1-2.6c-0.7-0.4-1.4-0.9-1.9-1.6s-0.8-1.5-0.7-2.3c0-0.4 0.1-0.8 0.3-1.1 0.3-0.7 0.9-1.2 1.6-1.4 0.4-0.1 0.8-0.2 1.1-0.2 0.4 0 0.7 0.1 1.1 0.1 0.4 0.1 0.8 0.3 1.1 0.5 0.4 0.3 0.7 0.6 0.9 1 0.3 0.5 0.5 1 0.7 1.5l1.3 0.1 0.9 0.1h4.2c0.3 0 0.6 0.2 0.8 0.3 0.8 0.5 1.4 1.2 1.9 1.9 0.2 0.4 0.2 0.8 0.2 1.1s-0.1 0.6-0.2 0.9l-0.5 1.7c-0.2 0.7-0.4 1.5-0.6 2.4s-0.4 1.8-0.6 2.8-0.4 2-0.5 3.1c-0.1 1-0.2 2.1-0.2 3.1 0 0.4 0 0.8 0.1 1.2s0.2 0.7 0.4 1.1c0.2 0.3 0.5 0.6 0.8 0.7 0.3 0.2 0.7 0.3 1.1 0.3 0.7 0 1.3-0.2 1.8-0.7s0.9-1 1.2-1.6c0.3-0.7 0.6-1.4 0.8-2.1 0.2-0.8 0.4-1.5 0.5-2.1 0.1-0.5 0.3-1 0.6-1.4 0.2-0.3 0.5-0.4 0.9-0.4 0.3 0 0.5 0.1 0.7 0.2 0.3 0.2 0.5 0.4 0.7 0.6s0.4 0.5 0.5 0.8 0.2 0.6 0.2 0.9v0.2 0.2c-0.3 1.1-0.7 2.1-1.1 3.2s-1 2.1-1.7 3-1.5 1.7-2.5 2.3c-1.2 0.6-2.3 1-3.5 1zm8.6-30.8c-0.5 0-1-0.1-1.4-0.3s-0.8-0.5-1.1-0.8-0.6-0.7-0.8-1.2-0.3-0.9-0.3-1.4 0.1-1 0.3-1.5c0.2-0.4 0.4-0.8 0.8-1.2 0.3-0.3 0.7-0.6 1.1-0.8 0.4-0.1 0.9-0.2 1.4-0.2s1 0.1 1.5 0.3c0.4 0.2 0.8 0.4 1.2 0.8 0.3 0.3 0.6 0.7 0.8 1.2s0.3 1 0.3 1.5-0.1 1-0.3 1.4-0.4 0.8-0.8 1.2c-0.3 0.3-0.7 0.6-1.2 0.8-0.5 0.1-1.1 0.2-1.5 0.2zm1.4 24v0.7c0 0.3 0.1 0.6 0.2 0.9s0.3 0.6 0.5 0.8 0.6 0.4 0.9 0.3c0.6 0 1.1-0.2 1.6-0.7s0.9-1 1.2-1.6c0.3-0.7 0.6-1.4 0.8-2.1 0.2-0.8 0.4-1.5 0.5-2.1 0.1-0.5 0.3-0.9 0.6-1.3 0.2-0.3 0.5-0.4 0.8-0.5 0.3 0 0.6 0.1 0.9 0.2 0.3 0.2 0.6 0.4 0.8 0.7s0.4 0.6 0.5 1c0.1 0.3 0.1 0.7 0 1-0.3 1.1-0.7 2.1-1.1 3.2s-1 2.1-1.7 3-1.5 1.7-2.5 2.3-2.2 1-3.4 0.9c-0.7 0-1.5-0.1-2.2-0.5-0.6-0.3-1.2-0.7-1.6-1.2-0.5-0.5-0.8-1.1-1-1.8s-0.3-1.4-0.3-2.2v-16.1c0-0.4 0-0.8-0.1-1.2-0.1-0.2-0.1-0.5-0.1-0.7 0-0.3 0.2-0.6 0.5-0.7 0.3-0.2 0.7-0.3 1.1-0.3 0.9 0 1.7 0.2 2.4 0.8 0.6 0.5 0.9 1.2 0.9 1.9l-0.2 15.3zm42-2.7c-0.3 1.1-0.7 2.1-1.1 3.2s-1 2.1-1.7 3-1.5 1.7-2.5 2.3-2.2 1-3.4 0.9c-0.7 0-1.5-0.1-2.1-0.5-0.6-0.3-1.2-0.7-1.6-1.2-0.5-0.5-0.8-1.1-1-1.8s-0.3-1.4-0.3-2.2v-12.2-1.3c0-0.4-0.1-0.7-0.1-1.1-0.1-0.3-0.2-0.5-0.3-0.8-0.1-0.2-0.4-0.3-0.6-0.3-0.6 0.1-1.1 0.4-1.5 0.9-0.7 0.7-1.2 1.5-1.7 2.3-0.6 1-1.1 2.1-1.5 3.2-0.4 1.2-0.7 2.4-0.8 3.6v8.8 0.9c0 0.3-0.1 0.6-0.2 0.8s-0.3 0.5-0.5 0.6c-0.3 0.2-0.6 0.3-1 0.3-0.3 0-0.7 0-1-0.1s-0.7-0.2-0.9-0.4c-0.3-0.2-0.5-0.5-0.7-0.8-0.2-0.4-0.4-0.9-0.4-1.4v-15.2c0-0.5 0-0.9-0.1-1.3 0-0.4-0.1-0.7-0.2-1.1-0.1-0.3-0.2-0.5-0.3-0.8-0.1-0.2-0.4-0.3-0.6-0.3-0.6 0.1-1.1 0.4-1.5 0.9-0.7 0.7-1.2 1.5-1.7 2.3-0.6 1-1.1 2.1-1.5 3.2-0.4 1.2-0.7 2.4-0.8 3.6v8.8 0.9c0 0.3-0.1 0.6-0.2 0.8s-0.3 0.5-0.5 0.6c-0.3 0.2-0.6 0.3-1 0.3-0.3 0-0.7 0-1-0.1s-0.7-0.2-0.9-0.4c-0.3-0.2-0.5-0.5-0.7-0.8-0.2-0.4-0.3-0.9-0.3-1.4v-19.1c0-0.4 0-0.8-0.1-1.2-0.1-0.2-0.1-0.5-0.1-0.7 0-0.3 0.2-0.6 0.5-0.7 0.3-0.2 0.7-0.3 1.1-0.3 0.9 0 1.7 0.2 2.4 0.8 0.6 0.5 0.9 1.2 0.9 1.9v2.5c0.4-0.8 0.8-1.6 1.3-2.3 0.4-0.7 0.9-1.3 1.5-1.8 0.5-0.5 1.1-0.9 1.7-1.2s1.3-0.4 1.9-0.4c0.8 0 1.6 0.1 2.3 0.5 0.6 0.3 1.1 0.8 1.4 1.3 0.4 0.6 0.6 1.2 0.8 1.8 0.2 0.7 0.3 1.3 0.3 2 0.4-0.8 0.8-1.5 1.2-2.3 0.4-0.7 0.9-1.3 1.5-1.8 0.5-0.5 1.1-0.9 1.7-1.2s1.3-0.4 1.9-0.4c0.8 0 1.7 0.2 2.4 0.6 0.6 0.3 1.1 0.8 1.5 1.4s0.6 1.3 0.7 2 0.2 1.4 0.2 2.1v12.5 0.7c0 0.3 0.1 0.6 0.2 0.9s0.3 0.6 0.5 0.8 0.6 0.4 0.9 0.3c0.6 0 1.3-0.2 1.7-0.7 0.5-0.5 0.9-1 1.1-1.6 0.3-0.7 0.6-1.4 0.8-2.1 0.2-0.8 0.4-1.5 0.5-2.1 0.1-0.5 0.3-1 0.6-1.4 0.2-0.3 0.5-0.4 0.9-0.4 0.3 0 0.5 0.1 0.7 0.2 0.3 0.2 0.5 0.3 0.7 0.6 0.2 0.2 0.4 0.5 0.5 0.8s0.2 0.6 0.2 0.9v0.2c-0.1 0.1-0.2 0.2-0.1 0.2zm-0.1-21.4c-0.5 0-1-0.1-1.4-0.3s-0.8-0.5-1.2-0.8c-0.3-0.3-0.6-0.7-0.8-1.2s-0.3-0.9-0.3-1.4 0.1-1 0.3-1.5c0.2-0.4 0.4-0.8 0.8-1.2 0.3-0.3 0.7-0.6 1.2-0.8 0.4-0.2 0.9-0.3 1.4-0.3s1 0.1 1.5 0.3c0.4 0.2 0.8 0.4 1.2 0.8 0.3 0.3 0.6 0.7 0.8 1.2s0.3 1 0.3 1.5-0.1 1-0.3 1.4-0.4 0.8-0.8 1.2c-0.3 0.3-0.7 0.6-1.2 0.8-0.5 0.3-1 0.4-1.5 0.3zm1.4 24v0.7c0 0.3 0.1 0.6 0.2 0.9s0.3 0.6 0.5 0.8 0.6 0.4 0.9 0.3c0.6 0 1.2-0.2 1.6-0.7 0.5-0.5 0.9-1 1.1-1.6 0.3-0.7 0.6-1.4 0.8-2.1 0.2-0.8 0.4-1.5 0.5-2.1 0.1-0.5 0.3-0.9 0.6-1.3 0.2-0.3 0.5-0.4 0.8-0.5 0.3 0 0.6 0.1 0.9 0.2 0.3 0.2 0.5 0.4 0.8 0.7 0.2 0.3 0.4 0.6 0.5 1 0.1 0.3 0.1 0.7 0 1-0.3 1.1-0.7 2.1-1.1 3.2s-1 2.1-1.7 3-1.5 1.7-2.5 2.3-2.2 1-3.4 0.9c-0.7 0-1.5-0.1-2.2-0.5-0.6-0.3-1.1-0.7-1.6-1.2s-0.8-1.1-1-1.8-0.3-1.4-0.3-2.2v-16c0-0.4 0-0.8-0.1-1.2-0.1-0.2-0.1-0.5-0.1-0.7 0-0.3 0.2-0.6 0.5-0.7 0.3-0.2 0.7-0.3 1.1-0.3 0.9 0 1.7 0.2 2.4 0.8 0.6 0.5 0.9 1.2 0.9 1.9l-0.1 15.2zm0.4-23.3c0.5 0 1 0.1 1.5 0.1s1 0.1 1.7 0.1h2.3v-10.2c0-0.3 0-0.7-0.1-1-0.1-0.2-0.1-0.4-0.2-0.6-0.1-0.1-0.1-0.2-0.2-0.3s-0.1-0.2-0.1-0.3 0.1-0.2 0.2-0.3 0.3-0.2 0.5-0.2c0.2-0.1 0.4-0.1 0.6-0.1h0.7c0.9 0 1.7 0.2 2.4 0.8 0.6 0.5 0.9 1.2 0.9 1.9v10.6h5.9s4.1-0.1 6.2-0.2c0.3-0.3 0.5-0.4 0.7-0.3s0.3 0.3 0.3 0.6v1.1c0 0.4-0.1 0.8-0.2 1.2s-0.3 0.7-0.5 1.1c-0.1 0.3-0.4 0.4-0.7 0.4-2.4 0.1-4.6 0.1-6.4 0.1h-5.2v19.1c-0.1 0.8 0.1 1.5 0.6 2.1 0.4 0.4 0.9 0.7 1.5 0.7s1.2-0.2 1.6-0.7c0.5-0.5 0.9-1 1.1-1.6 0.3-0.7 0.6-1.4 0.8-2.1 0.2-0.8 0.4-1.5 0.5-2.1 0.1-0.5 0.3-1 0.6-1.4 0.2-0.3 0.5-0.4 0.9-0.4 0.3 0 0.5 0.1 0.7 0.2 0.3 0.2 0.5 0.3 0.7 0.6 0.2 0.2 0.4 0.5 0.5 0.8s0.2 0.6 0.2 0.9v0.2c0 0.1 0 0.2-0.1 0.3-0.3 1.1-0.6 2.1-1 3.2s-1 2.1-1.7 3-1.5 1.7-2.5 2.3-2.2 1-3.4 0.9c-0.8 0-1.5-0.1-2.2-0.4-0.7-0.2-1.3-0.6-1.8-1.2s-0.9-1.3-1.2-2.1c-0.3-1-0.4-2-0.4-3.1v-19.5h-3.3l-1.1-0.1c-0.5 0-1-0.2-1.3-0.6-0.4-0.4-0.6-0.9-0.8-1.4-0.1-0.5-0.2-0.9-0.1-1.4 0.2-0.4 0.5-0.7 0.9-0.7zm19.6-0.7c-0.5 0-1-0.1-1.4-0.3s-0.8-0.5-1.1-0.8-0.6-0.7-0.8-1.2-0.3-0.9-0.3-1.4 0.1-1 0.3-1.5c0.2-0.4 0.4-0.8 0.8-1.2 0.7-0.7 1.6-1 2.6-1 0.5 0 1 0.1 1.5 0.3 0.4 0.2 0.8 0.4 1.2 0.8 0.3 0.3 0.6 0.7 0.8 1.2s0.3 1 0.3 1.5-0.1 1-0.3 1.4-0.4 0.8-0.8 1.2c-0.3 0.3-0.7 0.6-1.2 0.8-0.6 0.2-1.1 0.3-1.6 0.2zm1.4 24v0.7c0 0.3 0.1 0.6 0.2 0.9s0.3 0.6 0.5 0.8 0.6 0.4 0.9 0.3c0.6 0 1.1-0.2 1.6-0.7s0.8-1 1.1-1.6c0.3-0.7 0.6-1.4 0.8-2.1 0.2-0.8 0.4-1.5 0.5-2.1 0.1-0.5 0.3-0.9 0.6-1.3 0.2-0.2 0.5-0.4 0.8-0.5 0.3 0 0.6 0.1 0.9 0.2 0.3 0.2 0.6 0.4 0.8 0.7s0.4 0.6 0.5 1c0.1 0.3 0.1 0.7 0 1-0.3 1.1-0.7 2.1-1.1 3.2s-1 2.1-1.7 3-1.5 1.7-2.5 2.3-2.2 1-3.4 0.9c-1.4 0-2.8-0.6-3.8-1.7-0.4-0.5-0.8-1.1-1-1.8s-0.3-1.4-0.3-2.2v-16c0-0.4 0-0.8-0.1-1.2-0.1-0.2-0.1-0.5-0.1-0.7 0-0.3 0.2-0.6 0.5-0.7 0.3-0.2 0.7-0.3 1.1-0.3 0.9 0 1.7 0.2 2.4 0.8 0.6 0.5 0.9 1.2 0.9 1.9l-0.1 15.2zm5.9-15c0-0.4 0-0.8-0.1-1.2-0.1-0.2-0.1-0.5-0.1-0.7 0-0.3 0.2-0.6 0.5-0.7 0.3-0.2 0.7-0.3 1.1-0.3 0.9 0 1.7 0.2 2.4 0.8 0.6 0.5 0.9 1.2 0.9 1.9v16.3c0 0.5 0.1 0.9 0.3 1.4 0.2 0.4 0.6 0.6 1.1 0.5 0.8 0 1.6-0.3 2.3-0.8 0.8-0.6 1.5-1.3 2-2.2 0.7-1.1 1.2-2.3 1.5-3.5 0.4-1.5 0.6-3.1 0.6-4.7 0-1-0.1-2-0.3-3-0.1-0.7-0.4-1.4-0.7-2-0.2-0.4-0.5-0.8-0.8-1.1l-0.7-0.6c-0.2-0.1-0.3-0.2-0.5-0.2s-0.3-0.1-0.3-0.3c0-0.3 0.1-0.6 0.2-0.9 0.1-0.4 0.3-0.7 0.6-1 0.2-0.3 0.5-0.6 0.8-0.8s0.6-0.3 0.9-0.3c0.7 0 1.4 0.4 1.9 0.9 0.7 0.7 1.3 1.5 1.7 2.4 0.6 1.1 1 2.2 1.3 3.3 0.3 1.2 0.5 2.5 0.5 3.8 0 2-0.3 3.9-0.8 5.8-0.5 1.7-1.3 3.3-2.4 4.8-1 1.3-2.2 2.4-3.7 3.2s-3.1 1.2-4.8 1.2c-0.8 0-1.7-0.1-2.4-0.5-0.6-0.3-1.2-0.7-1.6-1.3s-0.7-1.2-0.9-1.9-0.3-1.5-0.3-2.3l-0.2-16zm33.6 2.5c0 1.2-0.2 2.3-0.6 3.5s-1 2.3-1.7 3.4c-0.8 1.1-1.7 2-2.8 2.8-1.2 0.9-2.5 1.5-3.9 1.9 0.2 0.5 0.5 1 0.8 1.5s0.7 0.9 1.2 1.2 1 0.6 1.6 0.8c0.7 0.2 1.4 0.3 2.1 0.3 1 0 2.1-0.2 3-0.7 0.8-0.4 1.5-1 2.1-1.7s1.1-1.6 1.4-2.4c0.3-0.9 0.6-1.8 0.8-2.8 0.1-0.6 0.4-1.1 0.9-1.3 0.4-0.2 0.9-0.3 1.3-0.2 0.5 0.1 0.9 0.4 1.1 0.8 0.3 0.4 0.5 0.9 0.4 1.4-0.1 0.7-0.2 1.4-0.4 2.1-0.2 0.8-0.5 1.6-0.8 2.4-0.4 0.8-0.9 1.6-1.4 2.4-0.6 0.8-1.3 1.5-2.1 2.1-0.9 0.6-1.9 1.1-3 1.5-1.3 0.4-2.6 0.6-3.9 0.6-2.8 0-5.5-1.1-7.4-3.2-1-1.1-1.8-2.4-2.4-3.8-0.6-1.6-0.9-3.3-0.9-5.1s0.3-3.6 0.8-5.3c0.5-1.5 1.2-3 2.1-4.3 0.8-1.1 1.8-2.1 3-2.8 1-0.6 2.2-1 3.4-1 0.8 0 1.6 0.1 2.3 0.4s1.3 0.7 1.7 1.3c0.5 0.6 0.8 1.2 1.1 1.9 0 0.7 0.1 1.5 0.2 2.3zm-9.8 7.2v0.5 0.6c0.7-0.4 1.4-0.8 2-1.4s1.1-1.2 1.6-1.9c0.4-0.7 0.8-1.5 1-2.3 0.2-0.9 0.4-1.7 0.4-2.6 0-0.5-0.1-1.1-0.3-1.6-0.2-0.4-0.5-0.6-0.9-0.6-0.5 0-1 0.2-1.3 0.5-0.4 0.4-0.8 0.8-1 1.3-0.3 0.6-0.5 1.2-0.7 1.8-0.2 0.7-0.3 1.4-0.5 2.1-0.1 0.7-0.2 1.3-0.2 2-0.2 0.6-0.2 1.1-0.1 1.6z"/>
</svg>
